<svg width="370" height="163" viewBox="0 0 370 163" fill="none" xmlns="http://www.w3.org/2000/svg">
<path d="M53.6498 146.84V150.57H58.4898V152.84H53.6498V156.65H59.8698V159H50.6298V144.49H59.8698V146.84H53.6498Z" fill="#151515"/>
<path d="M76.8841 151.81H82.1641V154.07H76.8841V151.81Z" fill="#151515"/>
<path d="M109.855 155.43C110.022 155.43 110.162 155.49 110.275 155.61L111.465 156.88C110.878 157.627 110.148 158.193 109.275 158.58C108.408 158.967 107.375 159.16 106.175 159.16C105.088 159.16 104.112 158.977 103.245 158.61C102.378 158.237 101.642 157.72 101.035 157.06C100.428 156.4 99.9618 155.617 99.6351 154.71C99.3084 153.803 99.1451 152.813 99.1451 151.74C99.1451 151.02 99.2218 150.337 99.3751 149.69C99.5351 149.037 99.7651 148.437 100.065 147.89C100.365 147.343 100.725 146.85 101.145 146.41C101.572 145.97 102.052 145.597 102.585 145.29C103.118 144.977 103.698 144.74 104.325 144.58C104.958 144.413 105.632 144.33 106.345 144.33C106.878 144.33 107.382 144.377 107.855 144.47C108.335 144.563 108.782 144.693 109.195 144.86C109.608 145.027 109.988 145.23 110.335 145.47C110.688 145.703 111.005 145.96 111.285 146.24L110.275 147.62C110.215 147.707 110.138 147.783 110.045 147.85C109.952 147.917 109.825 147.95 109.665 147.95C109.505 147.95 109.342 147.893 109.175 147.78C109.015 147.667 108.815 147.54 108.575 147.4C108.342 147.26 108.045 147.133 107.685 147.02C107.332 146.907 106.882 146.85 106.335 146.85C105.728 146.85 105.172 146.96 104.665 147.18C104.158 147.4 103.722 147.72 103.355 148.14C102.995 148.553 102.715 149.063 102.515 149.67C102.315 150.277 102.215 150.967 102.215 151.74C102.215 152.52 102.322 153.217 102.535 153.83C102.755 154.437 103.052 154.95 103.425 155.37C103.805 155.79 104.245 156.11 104.745 156.33C105.252 156.543 105.792 156.65 106.365 156.65C106.705 156.65 107.012 156.633 107.285 156.6C107.565 156.567 107.822 156.51 108.055 156.43C108.295 156.35 108.518 156.247 108.725 156.12C108.938 155.993 109.152 155.833 109.365 155.64C109.438 155.58 109.515 155.53 109.595 155.49C109.675 155.45 109.762 155.43 109.855 155.43Z" fill="#151515"/>
<path d="M142.066 151.74C142.066 152.8 141.886 153.783 141.526 154.69C141.173 155.597 140.67 156.38 140.016 157.04C139.37 157.7 138.59 158.22 137.676 158.6C136.763 158.973 135.749 159.16 134.636 159.16C133.523 159.16 132.51 158.973 131.596 158.6C130.683 158.22 129.899 157.7 129.246 157.04C128.593 156.38 128.086 155.597 127.726 154.69C127.373 153.783 127.196 152.8 127.196 151.74C127.196 150.68 127.373 149.7 127.726 148.8C128.086 147.893 128.593 147.11 129.246 146.45C129.899 145.79 130.683 145.273 131.596 144.9C132.51 144.52 133.523 144.33 134.636 144.33C135.749 144.33 136.763 144.52 137.676 144.9C138.59 145.273 139.37 145.793 140.016 146.46C140.67 147.12 141.173 147.903 141.526 148.81C141.886 149.71 142.066 150.687 142.066 151.74ZM138.996 151.74C138.996 150.98 138.896 150.3 138.696 149.7C138.496 149.093 138.206 148.58 137.826 148.16C137.453 147.733 136.996 147.41 136.456 147.19C135.923 146.963 135.316 146.85 134.636 146.85C133.956 146.85 133.346 146.963 132.806 147.19C132.266 147.41 131.806 147.733 131.426 148.16C131.053 148.58 130.766 149.093 130.566 149.7C130.366 150.3 130.266 150.98 130.266 151.74C130.266 152.507 130.366 153.193 130.566 153.8C130.766 154.4 131.053 154.91 131.426 155.33C131.806 155.75 132.266 156.073 132.806 156.3C133.346 156.52 133.956 156.63 134.636 156.63C135.316 156.63 135.923 156.52 136.456 156.3C136.996 156.073 137.453 155.75 137.826 155.33C138.206 154.91 138.496 154.4 138.696 153.8C138.896 153.193 138.996 152.507 138.996 151.74Z" fill="#151515"/>
<path d="M175.457 144.49V159H172.807V150.09C172.807 149.903 172.81 149.703 172.817 149.49C172.83 149.277 172.85 149.06 172.877 148.84L168.727 156.71C168.5 157.143 168.15 157.36 167.677 157.36H167.257C167.024 157.36 166.817 157.307 166.637 157.2C166.457 157.087 166.314 156.923 166.207 156.71L162.037 148.81C162.057 149.043 162.074 149.27 162.087 149.49C162.1 149.703 162.107 149.903 162.107 150.09V159H159.457V144.49H161.737C161.864 144.49 161.977 144.493 162.077 144.5C162.177 144.507 162.264 144.527 162.337 144.56C162.417 144.587 162.487 144.633 162.547 144.7C162.614 144.76 162.677 144.847 162.737 144.96L166.797 152.7C166.924 152.933 167.04 153.173 167.147 153.42C167.26 153.667 167.367 153.92 167.467 154.18C167.567 153.913 167.67 153.653 167.777 153.4C167.89 153.147 168.01 152.903 168.137 152.67L172.167 144.96C172.227 144.847 172.29 144.76 172.357 144.7C172.424 144.633 172.494 144.587 172.567 144.56C172.647 144.527 172.734 144.507 172.827 144.5C172.927 144.493 173.044 144.49 173.177 144.49H175.457Z" fill="#151515"/>
<path d="M209.681 144.49V159H207.031V150.09C207.031 149.903 207.034 149.703 207.041 149.49C207.054 149.277 207.074 149.06 207.101 148.84L202.951 156.71C202.724 157.143 202.374 157.36 201.901 157.36H201.481C201.247 157.36 201.041 157.307 200.861 157.2C200.681 157.087 200.537 156.923 200.431 156.71L196.261 148.81C196.281 149.043 196.297 149.27 196.311 149.49C196.324 149.703 196.331 149.903 196.331 150.09V159H193.681V144.49H195.961C196.087 144.49 196.201 144.493 196.301 144.5C196.401 144.507 196.487 144.527 196.561 144.56C196.641 144.587 196.711 144.633 196.771 144.7C196.837 144.76 196.901 144.847 196.961 144.96L201.021 152.7C201.147 152.933 201.264 153.173 201.371 153.42C201.484 153.667 201.591 153.92 201.691 154.18C201.791 153.913 201.894 153.653 202.001 153.4C202.114 153.147 202.234 152.903 202.361 152.67L206.391 144.96C206.451 144.847 206.514 144.76 206.581 144.7C206.647 144.633 206.717 144.587 206.791 144.56C206.871 144.527 206.957 144.507 207.051 144.5C207.151 144.493 207.267 144.49 207.401 144.49H209.681Z" fill="#151515"/>
<path d="M230.924 146.84V150.57H235.764V152.84H230.924V156.65H237.144V159H227.904V144.49H237.144V146.84H230.924Z" fill="#151515"/>
<path d="M259.128 151.36C259.615 151.36 260.035 151.3 260.388 151.18C260.742 151.053 261.032 150.883 261.258 150.67C261.485 150.45 261.652 150.193 261.758 149.9C261.865 149.607 261.918 149.287 261.918 148.94C261.918 148.253 261.688 147.72 261.228 147.34C260.775 146.96 260.082 146.77 259.148 146.77H257.588V151.36H259.128ZM266.158 159H263.448C262.942 159 262.575 158.807 262.348 158.42L259.588 153.97C259.475 153.797 259.348 153.67 259.208 153.59C259.075 153.51 258.875 153.47 258.608 153.47H257.588V159H254.588V144.49H259.148C260.162 144.49 261.028 144.597 261.748 144.81C262.468 145.017 263.058 145.307 263.518 145.68C263.978 146.053 264.315 146.5 264.528 147.02C264.742 147.533 264.848 148.1 264.848 148.72C264.848 149.2 264.778 149.657 264.638 150.09C264.505 150.517 264.308 150.907 264.048 151.26C263.788 151.613 263.468 151.927 263.088 152.2C262.708 152.473 262.275 152.693 261.788 152.86C261.982 152.967 262.162 153.097 262.328 153.25C262.495 153.397 262.645 153.573 262.778 153.78L266.158 159Z" fill="#151515"/>
<path d="M292.422 155.43C292.589 155.43 292.729 155.49 292.842 155.61L294.032 156.88C293.446 157.627 292.716 158.193 291.842 158.58C290.976 158.967 289.942 159.16 288.742 159.16C287.656 159.16 286.679 158.977 285.812 158.61C284.946 158.237 284.209 157.72 283.602 157.06C282.996 156.4 282.529 155.617 282.202 154.71C281.876 153.803 281.712 152.813 281.712 151.74C281.712 151.02 281.789 150.337 281.942 149.69C282.102 149.037 282.332 148.437 282.632 147.89C282.932 147.343 283.292 146.85 283.712 146.41C284.139 145.97 284.619 145.597 285.152 145.29C285.686 144.977 286.266 144.74 286.892 144.58C287.526 144.413 288.199 144.33 288.912 144.33C289.446 144.33 289.949 144.377 290.422 144.47C290.902 144.563 291.349 144.693 291.762 144.86C292.176 145.027 292.556 145.23 292.902 145.47C293.256 145.703 293.572 145.96 293.852 146.24L292.842 147.62C292.782 147.707 292.706 147.783 292.612 147.85C292.519 147.917 292.392 147.95 292.232 147.95C292.072 147.95 291.909 147.893 291.742 147.78C291.582 147.667 291.382 147.54 291.142 147.4C290.909 147.26 290.612 147.133 290.252 147.02C289.899 146.907 289.449 146.85 288.902 146.85C288.296 146.85 287.739 146.96 287.232 147.18C286.726 147.4 286.289 147.72 285.922 148.14C285.562 148.553 285.282 149.063 285.082 149.67C284.882 150.277 284.782 150.967 284.782 151.74C284.782 152.52 284.889 153.217 285.102 153.83C285.322 154.437 285.619 154.95 285.992 155.37C286.372 155.79 286.812 156.11 287.312 156.33C287.819 156.543 288.359 156.65 288.932 156.65C289.272 156.65 289.579 156.633 289.852 156.6C290.132 156.567 290.389 156.51 290.622 156.43C290.862 156.35 291.086 156.247 291.292 156.12C291.506 155.993 291.719 155.833 291.932 155.64C292.006 155.58 292.082 155.53 292.162 155.49C292.242 155.45 292.329 155.43 292.422 155.43Z" fill="#151515"/>
<path d="M313.946 146.84V150.57H318.786V152.84H313.946V156.65H320.166V159H310.926V144.49H320.166V146.84H313.946Z" fill="#151515"/>
<path fill-rule="evenodd" clip-rule="evenodd" d="M59.4898 149.57V153.84H54.6498V155.65H60.8698V160H49.6298V143.49H60.8698V147.84H54.6498V149.57H59.4898ZM53.6498 146.84H59.8698V144.49H50.6298V159H59.8698V156.65H53.6498V152.84H58.4898V150.57H53.6498V146.84ZM75.8841 150.81H83.1641V155.07H75.8841V150.81ZM111.002 154.923L111.005 154.926L112.782 156.823L112.251 157.498C111.563 158.373 110.703 159.041 109.681 159.494C109.681 159.494 109.68 159.494 109.68 159.494L109.276 158.581L109.683 159.493C109.682 159.493 109.682 159.494 109.681 159.494C108.658 159.95 107.479 160.16 106.175 160.16C104.975 160.16 103.863 159.957 102.855 159.531L102.849 159.528C101.86 159.102 101.006 158.506 100.299 157.737C99.5956 156.972 99.0626 156.071 98.6943 155.049C98.3243 154.022 98.1451 152.916 98.1451 151.74C98.1451 150.949 98.2294 150.187 98.4021 149.459L98.4038 149.452C98.5829 148.721 98.8432 148.038 99.1884 147.409C99.5292 146.788 99.9402 146.224 100.422 145.719L100.427 145.714C100.918 145.208 101.47 144.778 102.083 144.425C102.698 144.064 103.364 143.794 104.074 143.612C104.797 143.422 105.555 143.33 106.345 143.33C106.936 143.33 107.504 143.382 108.047 143.489C108.583 143.593 109.091 143.74 109.569 143.933C110.044 144.124 110.487 144.36 110.895 144.642C111.297 144.908 111.664 145.205 111.992 145.533L112.598 146.139L111.088 148.202C110.959 148.386 110.801 148.539 110.626 148.664C110.308 148.891 109.954 148.95 109.665 148.95C109.258 148.95 108.902 148.804 108.613 148.607L108.605 148.602L108.597 148.596C108.469 148.505 108.295 148.394 108.071 148.264L108.061 148.258C107.915 148.17 107.696 148.072 107.385 147.974L107.38 147.972C107.16 147.902 106.822 147.85 106.335 147.85C105.852 147.85 105.432 147.937 105.063 148.097C104.694 148.258 104.378 148.488 104.108 148.798C103.849 149.095 103.63 149.483 103.465 149.983C103.304 150.47 103.215 151.051 103.215 151.74C103.215 152.427 103.309 153.008 103.477 153.495C103.66 153.996 103.894 154.392 104.17 154.702C104.456 155.018 104.779 155.251 105.141 155.411C105.517 155.569 105.922 155.65 106.365 155.65C106.674 155.65 106.939 155.635 107.164 155.607L107.167 155.607C107.386 155.581 107.573 155.538 107.731 155.484L107.739 155.481C107.91 155.424 108.064 155.353 108.203 155.267L108.215 155.26C108.362 155.172 108.522 155.054 108.694 154.899L108.712 154.882L108.732 154.866C108.859 154.762 108.998 154.671 109.148 154.596C109.373 154.483 109.613 154.43 109.855 154.43C110.294 154.43 110.698 154.601 111.002 154.923ZM104.745 156.33C104.245 156.11 103.805 155.79 103.425 155.37C103.052 154.95 102.755 154.437 102.535 153.83C102.322 153.217 102.215 152.52 102.215 151.74C102.215 150.967 102.315 150.277 102.515 149.67C102.715 149.063 102.995 148.553 103.355 148.14C103.722 147.72 104.158 147.4 104.665 147.18C105.172 146.96 105.728 146.85 106.335 146.85C106.882 146.85 107.332 146.907 107.685 147.02C108.045 147.133 108.342 147.26 108.575 147.4C108.815 147.54 109.015 147.667 109.175 147.78C109.342 147.893 109.505 147.95 109.665 147.95C109.825 147.95 109.952 147.917 110.045 147.85C110.138 147.783 110.215 147.707 110.275 147.62L111.285 146.24C111.005 145.96 110.688 145.703 110.335 145.47C109.988 145.23 109.608 145.027 109.195 144.86C108.782 144.693 108.335 144.563 107.855 144.47C107.382 144.377 106.878 144.33 106.345 144.33C105.632 144.33 104.958 144.413 104.325 144.58C103.698 144.74 103.118 144.977 102.585 145.29C102.052 145.597 101.572 145.97 101.145 146.41C100.725 146.85 100.365 147.343 100.065 147.89C99.7651 148.437 99.5351 149.037 99.3751 149.69C99.2218 150.337 99.1451 151.02 99.1451 151.74C99.1451 152.813 99.3084 153.803 99.6351 154.71C99.9618 155.617 100.428 156.4 101.035 157.06C101.642 157.72 102.378 158.237 103.245 158.61C104.112 158.977 105.088 159.16 106.175 159.16C107.375 159.16 108.408 158.967 109.275 158.58C110.148 158.193 110.878 157.627 111.465 156.88L110.275 155.61C110.162 155.49 110.022 155.43 109.855 155.43C109.762 155.43 109.675 155.45 109.595 155.49C109.515 155.53 109.438 155.58 109.365 155.64C109.152 155.833 108.938 155.993 108.725 156.12C108.518 156.247 108.295 156.35 108.055 156.43C107.822 156.51 107.565 156.567 107.285 156.6C107.012 156.633 106.705 156.65 106.365 156.65C105.792 156.65 105.252 156.543 104.745 156.33ZM138.06 159.523L138.055 159.526C137.007 159.954 135.863 160.16 134.636 160.16C133.41 160.16 132.266 159.954 131.218 159.526L131.212 159.523C130.184 159.096 129.288 158.504 128.535 157.743C127.783 156.983 127.204 156.084 126.797 155.059L126.794 155.053C126.392 154.021 126.196 152.913 126.196 151.74C126.196 150.567 126.392 149.462 126.795 148.435L126.797 148.431C127.204 147.406 127.783 146.507 128.535 145.746C129.289 144.986 130.186 144.396 131.215 143.975C132.264 143.54 133.409 143.33 134.636 143.33C135.864 143.33 137.009 143.54 138.057 143.975C139.087 144.397 139.983 144.99 140.73 145.76C141.482 146.52 142.057 147.419 142.457 148.444C142.867 149.47 143.066 150.572 143.066 151.74C143.066 152.914 142.867 154.022 142.457 155.055C142.057 156.081 141.482 156.98 140.729 157.741C139.982 158.503 139.088 159.096 138.06 159.523ZM140.016 157.04C140.67 156.38 141.173 155.597 141.526 154.69C141.886 153.783 142.066 152.8 142.066 151.74C142.066 150.687 141.886 149.71 141.526 148.81C141.173 147.903 140.67 147.12 140.016 146.46C139.37 145.793 138.59 145.273 137.676 144.9C136.763 144.52 135.75 144.33 134.636 144.33C133.523 144.33 132.51 144.52 131.596 144.9C130.683 145.273 129.9 145.79 129.246 146.45C128.593 147.11 128.086 147.893 127.726 148.8C127.373 149.7 127.196 150.68 127.196 151.74C127.196 152.8 127.373 153.783 127.726 154.69C128.086 155.597 128.593 156.38 129.246 157.04C129.9 157.7 130.683 158.22 131.596 158.6C132.51 158.973 133.523 159.16 134.636 159.16C135.75 159.16 136.763 158.973 137.676 158.6C138.59 158.22 139.37 157.7 140.016 157.04ZM137.747 150.016L137.746 150.013C137.585 149.522 137.36 149.135 137.085 148.831L137.079 148.825L137.074 148.818C136.806 148.512 136.479 148.279 136.079 148.116L136.072 148.113L136.065 148.11C135.675 147.944 135.205 147.85 134.636 147.85C134.068 147.85 133.593 147.944 133.193 148.112L133.183 148.116C132.782 148.28 132.449 148.515 132.173 148.825C131.902 149.13 131.679 149.519 131.516 150.013L131.515 150.016C131.355 150.496 131.266 151.066 131.266 151.74C131.266 152.42 131.355 152.998 131.515 153.485C131.677 153.97 131.9 154.356 132.171 154.662C132.447 154.967 132.782 155.205 133.188 155.376C133.589 155.538 134.067 155.63 134.636 155.63C135.207 155.63 135.68 155.538 136.072 155.377C136.479 155.205 136.81 154.968 137.079 154.666L137.085 154.659C137.361 154.353 137.586 153.969 137.747 153.485C137.907 152.998 137.996 152.42 137.996 151.74C137.996 151.066 137.907 150.496 137.747 150.016ZM136.456 156.3C135.923 156.52 135.316 156.63 134.636 156.63C133.956 156.63 133.346 156.52 132.806 156.3C132.266 156.073 131.806 155.75 131.426 155.33C131.053 154.91 130.766 154.4 130.566 153.8C130.366 153.193 130.266 152.507 130.266 151.74C130.266 150.98 130.366 150.3 130.566 149.7C130.766 149.093 131.053 148.58 131.426 148.16C131.806 147.733 132.266 147.41 132.806 147.19C133.346 146.963 133.956 146.85 134.636 146.85C135.316 146.85 135.923 146.963 136.456 147.19C136.996 147.41 137.453 147.733 137.826 148.16C138.206 148.58 138.496 149.093 138.696 149.7C138.896 150.3 138.996 150.98 138.996 151.74C138.996 152.507 138.896 153.193 138.696 153.8C138.496 154.4 138.206 154.91 137.826 155.33C137.453 155.75 136.996 156.073 136.456 156.3ZM176.457 143.49V160H171.807V153.013L169.613 157.173C169.433 157.519 169.175 157.829 168.821 158.048C168.465 158.268 168.071 158.36 167.677 158.36H167.257C166.866 158.36 166.479 158.269 166.127 158.06L166.116 158.053L166.104 158.046C165.755 157.826 165.497 157.52 165.319 157.169L163.107 152.979V160H158.457V143.49H161.737C161.88 143.49 162.017 143.494 162.144 143.502C162.321 143.514 162.513 143.55 162.704 143.629C162.919 143.71 163.104 143.836 163.255 143.993C163.417 144.149 163.534 144.329 163.621 144.492L163.623 144.495L167.459 151.809L171.281 144.497L171.283 144.492C171.373 144.323 171.496 144.136 171.668 143.975C171.809 143.838 171.986 143.712 172.202 143.629C172.384 143.556 172.57 143.516 172.756 143.502L172.761 143.502C172.889 143.494 173.028 143.49 173.177 143.49H176.457ZM172.357 144.7C172.29 144.76 172.227 144.847 172.167 144.96L168.137 152.67C168.095 152.747 168.054 152.826 168.013 152.905C167.988 152.955 167.963 153.006 167.938 153.057C167.933 153.066 167.929 153.075 167.925 153.084C167.874 153.187 167.825 153.293 167.777 153.4C167.67 153.653 167.567 153.913 167.467 154.18C167.367 153.92 167.26 153.667 167.147 153.42C167.096 153.301 167.042 153.183 166.985 153.067C166.981 153.058 166.977 153.049 166.972 153.04C166.95 152.994 166.927 152.949 166.904 152.903C166.869 152.835 166.834 152.767 166.797 152.7L162.737 144.96C162.677 144.847 162.614 144.76 162.547 144.7C162.487 144.633 162.417 144.587 162.337 144.56C162.264 144.527 162.177 144.507 162.077 144.5C161.977 144.493 161.864 144.49 161.737 144.49H159.457V159H162.107V150.09C162.107 149.903 162.1 149.703 162.087 149.49C162.074 149.27 162.057 149.043 162.037 148.81L166.207 156.71C166.314 156.923 166.457 157.087 166.637 157.2C166.817 157.307 167.024 157.36 167.257 157.36H167.677C168.15 157.36 168.5 157.143 168.727 156.71L172.877 148.84C172.85 149.06 172.83 149.277 172.817 149.49C172.81 149.703 172.807 149.903 172.807 150.09V159H175.457V144.49H173.177C173.044 144.49 172.927 144.493 172.827 144.5C172.734 144.507 172.647 144.527 172.567 144.56C172.494 144.587 172.424 144.633 172.357 144.7ZM210.681 143.49V160H206.031V153.013L203.837 157.173C203.656 157.519 203.398 157.829 203.044 158.048C202.689 158.268 202.295 158.36 201.901 158.36H201.481C201.089 158.36 200.702 158.269 200.351 158.06L200.339 158.053L200.328 158.046C199.979 157.826 199.72 157.52 199.542 157.169L197.331 152.979V160H192.681V143.49H195.961C196.104 143.49 196.24 143.494 196.367 143.502C196.544 143.514 196.737 143.55 196.927 143.629C197.143 143.71 197.327 143.836 197.478 143.993C197.641 144.149 197.758 144.329 197.844 144.492L197.846 144.495L201.682 151.809L205.504 144.497L205.507 144.492C205.597 144.323 205.719 144.136 205.891 143.975C206.032 143.838 206.209 143.712 206.426 143.629C206.607 143.556 206.794 143.516 206.979 143.502L206.984 143.502C207.112 143.494 207.252 143.49 207.401 143.49H210.681ZM206.581 144.7C206.514 144.76 206.451 144.847 206.391 144.96L202.361 152.67C202.319 152.747 202.277 152.826 202.237 152.905C202.211 152.955 202.186 153.006 202.161 153.057C202.157 153.066 202.152 153.075 202.148 153.084C202.098 153.187 202.049 153.293 202.001 153.4C201.894 153.653 201.791 153.913 201.691 154.18C201.591 153.92 201.484 153.667 201.371 153.42C201.319 153.301 201.265 153.183 201.209 153.067C201.204 153.058 201.2 153.049 201.196 153.04C201.173 152.994 201.151 152.949 201.128 152.903C201.093 152.835 201.057 152.767 201.021 152.7L196.961 144.96C196.901 144.847 196.837 144.76 196.771 144.7C196.711 144.633 196.641 144.587 196.561 144.56C196.487 144.527 196.401 144.507 196.301 144.5C196.201 144.493 196.087 144.49 195.961 144.49H193.681V159H196.331V150.09C196.331 149.903 196.324 149.703 196.311 149.49C196.297 149.27 196.281 149.043 196.261 148.81L200.431 156.71C200.537 156.923 200.681 157.087 200.861 157.2C201.041 157.307 201.247 157.36 201.481 157.36H201.901C202.374 157.36 202.724 157.143 202.951 156.71L207.101 148.84C207.074 149.06 207.054 149.277 207.041 149.49C207.034 149.703 207.031 149.903 207.031 150.09V159H209.681V144.49H207.401C207.267 144.49 207.151 144.493 207.051 144.5C206.957 144.507 206.871 144.527 206.791 144.56C206.717 144.587 206.647 144.633 206.581 144.7ZM236.764 149.57V153.84H231.924V155.65H238.144V160H226.904V143.49H238.144V147.84H231.924V149.57H236.764ZM230.924 146.84H237.144V144.49H227.904V159H237.144V156.65H230.924V152.84H235.764V150.57H230.924V146.84ZM260.591 148.111L260.586 148.106C260.391 147.943 259.975 147.77 259.148 147.77H258.588V150.36H259.128C259.532 150.36 259.836 150.31 260.059 150.236C260.3 150.148 260.461 150.046 260.568 149.947C260.684 149.832 260.765 149.705 260.819 149.558C260.881 149.386 260.918 149.183 260.918 148.94C260.918 148.501 260.785 148.271 260.591 148.111ZM261.258 150.67C261.032 150.883 260.742 151.053 260.388 151.18C260.035 151.3 259.615 151.36 259.128 151.36H257.588V146.77H259.148C260.082 146.77 260.775 146.96 261.228 147.34C261.688 147.72 261.918 148.253 261.918 148.94C261.918 149.287 261.865 149.607 261.758 149.9C261.652 150.193 261.485 150.45 261.258 150.67ZM267.997 160H263.448C262.647 160 261.926 159.667 261.493 158.938C261.49 158.934 261.488 158.93 261.486 158.926L258.751 154.517C258.75 154.514 258.748 154.512 258.746 154.509C258.737 154.495 258.728 154.484 258.721 154.475C258.695 154.472 258.658 154.47 258.608 154.47H258.588V160H253.588V143.49H259.148C260.225 143.49 261.191 143.602 262.028 143.85C262.843 144.084 263.561 144.427 264.149 144.903C264.731 145.376 265.172 145.956 265.453 146.639C265.453 146.639 265.453 146.64 265.454 146.64L264.528 147.02C264.742 147.533 264.848 148.1 264.848 148.72C264.848 149.2 264.778 149.657 264.638 150.09C264.505 150.517 264.308 150.907 264.048 151.26C263.788 151.613 263.468 151.927 263.088 152.2C263.007 152.258 262.923 152.314 262.837 152.368C262.521 152.565 262.171 152.729 261.788 152.86C261.982 152.967 262.162 153.097 262.328 153.25C262.443 153.351 262.55 153.466 262.649 153.596C262.694 153.654 262.737 153.716 262.778 153.78L266.158 159H263.448C262.942 159 262.575 158.807 262.348 158.42L259.588 153.97C259.475 153.797 259.348 153.67 259.208 153.59C259.075 153.51 258.875 153.47 258.608 153.47H257.588V159H254.588V144.49H259.148C260.162 144.49 261.028 144.597 261.748 144.81C262.468 145.017 263.058 145.307 263.518 145.68C263.978 146.053 264.315 146.5 264.528 147.02M263.618 153.236C263.59 153.193 263.561 153.151 263.532 153.109ZM267.997 160L263.619 153.238ZM263.532 153.109C263.579 153.077 263.626 153.045 263.672 153.012C264.131 152.682 264.528 152.296 264.854 151.853C265.18 151.41 265.425 150.922 265.591 150.394M293.569 154.923L295.349 156.823L294.819 157.498C294.131 158.373 293.27 159.041 292.248 159.494C291.225 159.95 290.046 160.16 288.742 160.16C287.542 160.16 286.43 159.957 285.423 159.531L285.417 159.528C284.428 159.102 283.573 158.506 282.866 157.737C282.163 156.972 281.63 156.071 281.261 155.049C280.891 154.022 280.712 152.916 280.712 151.74C280.712 150.949 280.797 150.187 280.969 149.459L280.971 149.452C281.15 148.721 281.41 148.038 281.756 147.409C282.096 146.788 282.507 146.224 282.989 145.719L282.994 145.714C283.485 145.208 284.037 144.778 284.649 144.426C285.265 144.064 285.931 143.794 286.641 143.612C287.364 143.422 288.122 143.33 288.912 143.33C289.503 143.33 290.071 143.382 290.613 143.488M293.463 144.642C293.865 144.908 294.231 145.205 294.559 145.533L295.165 146.139L293.664 148.189C293.661 148.193 293.658 148.198 293.655 148.202C293.526 148.386 293.368 148.539 293.194 148.664C292.875 148.891 292.521 148.95 292.232 148.95C291.825 148.95 291.469 148.804 291.18 148.607L291.172 148.602L291.164 148.596C291.036 148.505 290.863 148.394 290.638 148.264L290.628 148.258C290.482 148.17 290.264 148.072 289.952 147.974L289.947 147.972C289.727 147.902 289.39 147.85 288.902 147.85C288.419 147.85 288 147.937 287.631 148.097C287.261 148.258 286.946 148.488 286.676 148.798C286.417 149.095 286.197 149.483 286.032 149.983C285.871 150.47 285.782 151.051 285.782 151.74C285.782 152.428 285.876 153.009 286.045 153.497C286.227 153.996 286.461 154.391 286.736 154.702C287.023 155.018 287.345 155.251 287.708 155.411C288.084 155.569 288.489 155.65 288.932 155.65C289.241 155.65 289.506 155.635 289.731 155.607L289.734 155.607C289.954 155.581 290.14 155.538 290.298 155.484L290.306 155.481C290.477 155.424 290.631 155.353 290.77 155.267L290.782 155.26C290.929 155.172 291.089 155.054 291.261 154.899L291.279 154.882L291.299 154.866C291.426 154.762 291.565 154.671 291.715 154.596C291.94 154.483 292.181 154.43 292.422 154.43C292.861 154.43 293.265 154.601 293.569 154.923M287.312 156.33C286.812 156.11 286.372 155.79 285.992 155.37C285.619 154.95 285.322 154.437 285.102 153.83C284.889 153.217 284.782 152.52 284.782 151.74C284.782 150.967 284.882 150.277 285.082 149.67C285.282 149.063 285.562 148.553 285.922 148.14C286.289 147.72 286.726 147.4 287.232 147.18C287.739 146.96 288.296 146.85 288.902 146.85C289.449 146.85 289.899 146.907 290.252 147.02C290.612 147.133 290.909 147.26 291.142 147.4C291.382 147.54 291.582 147.667 291.742 147.78C291.909 147.893 292.072 147.95 292.232 147.95C292.392 147.95 292.519 147.917 292.612 147.85C292.706 147.783 292.782 147.707 292.842 147.62L293.852 146.24C293.572 145.96 293.256 145.703 292.902 145.47C292.556 145.23 292.176 145.027 291.762 144.86C291.349 144.693 290.902 144.563 290.422 144.47C289.949 144.377 289.446 144.33 288.912 144.33C288.199 144.33 287.526 144.413 286.892 144.58C286.266 144.74 285.686 144.977 285.152 145.29C284.619 145.597 284.139 145.97 283.712 146.41C283.292 146.85 282.932 147.343 282.632 147.89C282.332 148.437 282.102 149.037 281.942 149.69C281.789 150.337 281.712 151.02 281.712 151.74C281.712 152.813 281.876 153.803 282.202 154.71C282.529 155.617 282.996 156.4 283.602 157.06C284.209 157.72 284.946 158.237 285.812 158.61C286.679 158.977 287.656 159.16 288.742 159.16C289.942 159.16 290.976 158.967 291.842 158.58C292.716 158.193 293.446 157.627 294.032 156.88L292.842 155.61C292.729 155.49 292.589 155.43 292.422 155.43C292.329 155.43 292.242 155.45 292.162 155.49C292.082 155.53 292.006 155.58 291.932 155.64C291.719 155.833 291.506 155.993 291.292 156.12C291.086 156.247 290.862 156.35 290.622 156.43C290.389 156.51 290.132 156.567 289.852 156.6C289.579 156.633 289.272 156.65 288.932 156.65C288.359 156.65 287.819 156.543 287.312 156.33ZM319.786 149.57V153.84H314.946V155.65H321.166V160H309.926V143.49H321.166V147.84H314.946V149.57H319.786ZM313.946 146.84H320.166V144.49H310.926V159H320.166V156.65H313.946V152.84H318.786V150.57H313.946V146.84ZM76.8841 151.81V154.07H82.1641V151.81H76.8841Z" fill="#151515"/>
<path fill-rule="evenodd" clip-rule="evenodd" d="M10.4403 122.988C10.4532 122.936 10.464 122.884 10.4728 122.832C10.8171 120.766 11.296 118.896 12.0518 115.945C12.3556 114.758 12.7041 113.397 13.1067 111.779C14.4488 106.382 16.2784 100.649 18.2176 96.0782C21.7005 87.8684 29.0294 70.9762 37.2757 54.2355C41.4 45.863 45.7258 37.5854 49.8918 30.4766C54.1061 23.2852 57.9808 17.5976 61.1708 14.1875C62.4575 12.8121 63.4478 12.0056 64.1489 11.5435C64.3862 11.3872 64.5857 11.2733 64.748 11.1911C65.1471 11.8367 65.6204 12.997 66.0004 14.7214C66.4152 16.6041 66.6193 18.6971 66.6554 20.538C66.6579 20.666 66.6649 20.7939 66.6763 20.9213C67.7885 33.326 70.9865 52.2291 77.0545 68.7399C80.0862 76.9892 83.9317 84.9132 88.7888 91.1606C93.6382 97.3982 99.8552 102.409 107.663 103.84C131.712 108.249 148.194 102.518 162.027 97.7086L162.066 97.6951C166.457 96.1686 170.512 94.7599 174.488 93.7659C177.556 92.9989 181.592 91.6657 186.364 90.0895L186.443 90.0633C211.949 81.6376 260.712 65.5645 314.478 82.6684L314.48 82.6692L314.485 82.6707L336.306 89.7355C337.269 90.0474 344.801 92.3059 352.165 94.2564C355.845 95.2311 359.528 96.1409 362.346 96.692C363.742 96.9651 364.998 97.1647 365.959 97.2282C366.423 97.2588 366.937 97.267 367.403 97.1903C367.633 97.1524 367.97 97.076 368.312 96.8923C368.666 96.7022 369.174 96.3104 369.403 95.6036C369.627 94.9096 369.453 94.3078 369.299 93.966C369.146 93.6264 368.938 93.3662 368.783 93.1947C368.469 92.8471 368.065 92.5303 367.681 92.258C366.887 91.696 365.778 91.0514 364.513 90.3738C361.96 89.0071 358.513 87.3718 355.027 85.7923C348.1 82.6535 340.74 79.6091 339.694 79.2704L317.849 72.1976L317.845 72.1963L317.828 72.1909L317.822 72.1891C260.247 53.8696 207.628 71.3863 182.54 79.7379L182.469 79.7613C177.913 81.2782 174.358 82.4599 171.82 83.0944C166.833 84.3412 162.133 85.9705 157.491 87.5798L157.491 87.5799L157.452 87.5932C144.035 92.2447 130.658 96.8725 109.646 93.0203C105.452 92.2514 101.378 89.4313 97.473 84.4091C93.575 79.3951 90.2018 72.6254 87.3793 64.9454C81.7681 49.6775 78.7186 31.8864 77.6489 20.1218C77.5913 17.7576 77.327 15.0065 76.7427 12.3545C76.1653 9.73418 75.1636 6.68021 73.3146 4.25665C71.2833 1.59402 67.9325 -0.569322 63.5052 0.134239C59.7373 0.733016 56.3049 3.28729 53.1379 6.67278C49.0781 11.0125 44.7029 17.5747 40.4013 24.915C36.0516 32.3374 31.5962 40.8722 27.408 49.3747C19.0293 66.3841 11.6082 83.4919 8.09115 91.7821C5.87596 97.0037 3.87835 103.307 2.43186 109.124C1.0126 114.831 -3.09943e-06 120.558 0 124.503C0 125.543 0.114009 128.508 0.479089 131.242C0.659723 132.596 0.915808 134.005 1.29163 135.118C1.47553 135.662 1.73148 136.27 2.10999 136.78C2.47485 137.272 3.2142 138.003 4.37275 138.003C5.4945 138.003 6.23502 137.313 6.61006 136.856C7.00887 136.37 7.30677 135.779 7.53707 135.229C8.00549 134.111 8.39771 132.661 8.73477 131.204C9.07148 129.748 9.37737 128.177 9.65514 126.749L9.66824 126.682C9.95476 125.21 10.206 123.925 10.4403 122.988Z" fill="#EB3118"/>
<circle cx="55.5" cy="88.5029" r="13" fill="#EB3118"/>
</svg>
